<svg  width="98" height="28" viewBox="0 0 98 28" fill="none" xmlns="http://www.w3.org/2000/svg">
<path d="M16.9221 18.8609C17.2177 19.1565 17.5916 19.3043 18.0438 19.3043C18.496 19.3043 18.8699 19.1565 19.1656 18.8609C19.4612 18.5478 19.609 18.1652 19.609 17.713V14.9686L20.8927 13.7874L25.583 18.7565C25.896 19.1043 26.2786 19.2783 26.7308 19.2783C27.0786 19.2783 27.4264 19.1391 27.7743 18.8609C28.1395 18.5652 28.3221 18.1913 28.3221 17.7391C28.3221 17.3043 28.1569 16.913 27.8264 16.5652L23.2679 11.6015L27.2003 7.98261C27.6177 7.61739 27.8264 7.22609 27.8264 6.80869C27.8264 6.49565 27.6786 6.17391 27.3829 5.84348C27.0873 5.51304 26.7395 5.34783 26.3395 5.34783C25.9047 5.34783 25.5221 5.51304 25.1916 5.84348L19.609 11.2311V1.5913C19.609 1.13913 19.4612 0.765216 19.1656 0.469564C18.8699 0.156521 18.496 0 18.0438 0C17.5916 0 17.2177 0.156521 16.9221 0.469564C16.6264 0.765216 16.4786 1.13913 16.4786 1.5913V17.713C16.4786 18.1652 16.6264 18.5478 16.9221 18.8609Z" fill="#44355B"/>
<path d="M3.49565 19.1217C4.46957 19.4174 5.56522 19.5652 6.78261 19.5652C7.96522 19.5652 9.06087 19.3478 10.0696 18.913C11.0957 18.4783 11.9217 17.8522 12.5478 17.0348C13.1739 16.2174 13.487 15.2435 13.487 14.113C13.487 13.2261 13.3565 12.4783 13.0957 11.8696C12.8348 11.2435 12.4435 10.7304 11.9217 10.3304C11.4 9.91304 10.7391 9.57391 9.93913 9.31304C9.15652 9.05217 8.24348 8.82609 7.2 8.63478C6.4 8.47826 5.71304 8.30435 5.13913 8.11304C4.56522 7.90435 4.12174 7.63478 3.8087 7.30435C3.51304 6.95652 3.36522 6.52174 3.36522 6C3.36522 5.56522 3.49565 5.18261 3.75652 4.85217C4.01739 4.52174 4.4 4.26087 4.90435 4.06956C5.42609 3.87826 6.06087 3.78261 6.8087 3.78261C7.26087 3.78261 7.74783 3.86087 8.26957 4.01739C8.79131 4.15652 9.28696 4.33913 9.75652 4.56522C10.2261 4.77391 10.6 5 10.8783 5.24348C11.087 5.4 11.3217 5.47826 11.5826 5.47826C11.9826 5.47826 12.3304 5.32174 12.6261 5.00869C12.9217 4.69565 13.0696 4.34783 13.0696 3.96522C13.0696 3.44348 12.8174 2.98261 12.313 2.58261C11.7043 2.06087 10.913 1.63478 9.93913 1.30435C8.98261 0.956521 7.93913 0.782608 6.8087 0.782608C5.6087 0.782608 4.51304 0.991303 3.52174 1.40869C2.53043 1.82609 1.73913 2.43478 1.14783 3.23478C0.573913 4.03478 0.286957 5 0.286957 6.13043C0.286957 6.87826 0.408696 7.55652 0.652174 8.16522C0.895652 8.75652 1.25217 9.27826 1.72174 9.73044C2.2087 10.1652 2.8087 10.5304 3.52174 10.8261C4.23478 11.1043 5.06087 11.313 6 11.4522C6.99131 11.5913 7.8087 11.7913 8.45218 12.0522C9.09565 12.2957 9.57391 12.6 9.88696 12.9652C10.2 13.3304 10.3565 13.7739 10.3565 14.2957C10.3565 14.7304 10.1913 15.1217 9.86087 15.4696C9.53044 15.8 9.09565 16.0696 8.55652 16.2783C8.01739 16.4696 7.42609 16.5652 6.78261 16.5652C5.82609 16.5652 5.01739 16.4261 4.35652 16.1478C3.71304 15.8696 3.06087 15.4609 2.4 14.9217C2.13913 14.713 1.84348 14.6087 1.51304 14.6087C1.07826 14.6087 0.713044 14.7652 0.417391 15.0783C0.13913 15.3739 0 15.7217 0 16.1217C0 16.3652 0.0608696 16.6087 0.182609 16.8522C0.304348 17.0957 0.478261 17.313 0.704348 17.5043C1.5913 18.2696 2.52174 18.8087 3.49565 19.1217Z" fill="#44355B"/>
<path d="M41.2991 5.34783C41.7513 5.34783 42.1252 5.50435 42.4209 5.81739C42.7165 6.11304 42.8643 6.48696 42.8643 6.93913V13.5652C42.8643 15.4087 42.3513 16.8696 41.3252 17.9478C40.2991 19.0261 38.8209 19.5652 36.8904 19.5652C34.96 19.5652 33.4817 19.0261 32.4556 17.9478C31.4469 16.8696 30.9426 15.4087 30.9426 13.5652V6.93913C30.9426 6.48696 31.0904 6.11304 31.3861 5.81739C31.6817 5.50435 32.0556 5.34783 32.5078 5.34783C32.96 5.34783 33.3339 5.50435 33.6296 5.81739C33.9252 6.11304 34.073 6.48696 34.073 6.93913V13.5652C34.073 14.6261 34.3078 15.4174 34.7774 15.9391C35.2469 16.4435 35.9513 16.6957 36.8904 16.6957C37.8469 16.6957 38.56 16.4435 39.0296 15.9391C39.4991 15.4174 39.7339 14.6261 39.7339 13.5652V6.93913C39.7339 6.48696 39.8817 6.11304 40.1774 5.81739C40.473 5.50435 40.8469 5.34783 41.2991 5.34783Z" fill="#44355B"/>
<path fill-rule="evenodd" clip-rule="evenodd" d="M56.7404 6.02609C55.7838 5.4 54.6969 5.08696 53.4795 5.08696C52.8708 5.08696 52.2882 5.1913 51.7317 5.4C51.1925 5.60869 50.7143 5.87826 50.2969 6.20869C49.9226 6.48939 49.6183 6.77708 49.3838 7.07176V6.93913C49.3838 6.48696 49.236 6.11304 48.9404 5.81739C48.6447 5.50435 48.2708 5.34783 47.8186 5.34783C47.3664 5.34783 46.9925 5.50435 46.6969 5.81739C46.4012 6.11304 46.2534 6.48696 46.2534 6.93913V21.0482L49.3838 21.0675V17.8243C49.5668 18.0046 49.7755 18.1849 50.0099 18.3652C50.4795 18.713 51.0186 19 51.6273 19.2261C52.236 19.4522 52.8882 19.5652 53.5838 19.5652C54.7664 19.5652 55.8273 19.2609 56.7664 18.6522C57.723 18.0261 58.4795 17.1739 59.036 16.0957C59.6099 15 59.8969 13.7391 59.8969 12.313C59.8969 10.887 59.6099 9.63478 59.036 8.55652C58.4795 7.47826 57.7143 6.63478 56.7404 6.02609ZM51.0795 8.53043C51.6534 8.14783 52.323 7.95652 53.0882 7.95652C53.8534 7.95652 54.5143 8.14783 55.0708 8.53043C55.6447 8.91304 56.0882 9.43478 56.4012 10.0957C56.7317 10.7391 56.8969 11.4783 56.8969 12.313C56.8969 13.1304 56.7317 13.8783 56.4012 14.5565C56.0882 15.2174 55.6447 15.7391 55.0708 16.1217C54.5143 16.5043 53.8534 16.6957 53.0882 16.6957C52.323 16.6957 51.6534 16.5043 51.0795 16.1217C50.5056 15.7391 50.0534 15.2174 49.723 14.5565C49.4099 13.8783 49.2534 13.1304 49.2534 12.313C49.2534 11.4783 49.4099 10.7391 49.723 10.0957C50.0534 9.43478 50.5056 8.91304 51.0795 8.53043Z" fill="#44355B"/>
<path d="M46.2534 26.4087V25.3961L49.3838 25.4154V26.4087C49.3838 26.8609 49.236 27.2348 48.9404 27.5304C48.6447 27.8435 48.2708 28 47.8186 28C47.3664 28 46.9925 27.8522 46.6969 27.5565C46.4012 27.2609 46.2534 26.8783 46.2534 26.4087Z" fill="#44355B"/>
<path d="M62.6342 26.4087V25.497L65.7646 25.5163V26.4087C65.7646 26.8609 65.6168 27.2348 65.3211 27.5304C65.0255 27.8435 64.6516 28 64.1994 28C63.7472 28 63.3733 27.8522 63.0777 27.5565C62.782 27.2609 62.6342 26.8783 62.6342 26.4087Z" fill="#44355B"/>
<path d="M90.6957 24.5217L45.4783 24.5217C44.7579 24.5217 44.1739 23.9378 44.1739 23.2174C44.1739 22.497 44.7579 21.9131 45.4783 21.9131H89.1029L89.1076 21.913C89.9075 21.913 92.3478 21.7043 92.8696 21.4783C92.883 21.4724 92.9064 21.4636 92.9377 21.4518C93.1875 21.3574 93.9421 21.0722 94.1739 20.6087C94.4522 20.1043 94.4815 19.0174 94.4815 18.1304V17.8553C94.3067 18.0715 94.1154 18.2676 93.9075 18.4435C93.4728 18.8087 92.951 19.087 92.3423 19.2783C91.7336 19.4696 91.038 19.5652 90.2554 19.5652C89.3336 19.5652 88.5249 19.3565 87.8293 18.9391C87.151 18.5043 86.6206 17.913 86.238 17.1652C85.8554 16.4 85.6641 15.5304 85.6641 14.5565V6.93913C85.6641 6.48696 85.8119 6.11304 86.1075 5.81739C86.4032 5.50435 86.7771 5.34783 87.2293 5.34783C87.6815 5.34783 88.0554 5.50435 88.351 5.81739C88.6467 6.11304 88.7945 6.48696 88.7945 6.93913V13.6174C88.7945 14.7478 89.038 15.5478 89.5249 16.0174C90.0293 16.4696 90.7249 16.6957 91.6119 16.6957C92.2206 16.6957 92.7336 16.5826 93.151 16.3565C93.5684 16.113 93.8902 15.7652 94.1162 15.313C94.3423 14.8435 94.4554 14.2783 94.4554 13.6174V6.93913C94.4554 6.48696 94.6032 6.11304 94.8988 5.81739C95.1945 5.50435 95.5684 5.34783 96.0206 5.34783C96.4728 5.34783 96.8467 5.50435 97.1423 5.81739C97.438 6.11304 97.5858 6.48696 97.5858 6.93913V18.0261C97.5858 19.6261 97.2815 20.8957 96.6728 21.8348C96.0815 22.7913 95.2815 23.4783 94.2728 23.8957C93.2658 24.3123 91.9523 24.521 90.702 24.5217C90.6999 24.5217 90.6978 24.5217 90.6957 24.5217Z" fill="#44355B"/>
<path fill-rule="evenodd" clip-rule="evenodd" d="M62.6342 6.93913V21.1491L65.7646 21.1684V17.8243C65.9476 18.0046 66.1563 18.1849 66.3907 18.3652C66.8603 18.713 67.3994 19 68.0081 19.2261C68.6168 19.4522 69.269 19.5652 69.9646 19.5652C71.1472 19.5652 72.2081 19.2609 73.1472 18.6522C74.1037 18.0261 74.8603 17.1739 75.4168 16.0957C75.9907 15 76.2777 13.7391 76.2777 12.313C76.2777 10.887 75.9907 9.63478 75.4168 8.55652C74.8603 7.47826 74.095 6.63478 73.1211 6.02609C72.1646 5.4 71.0777 5.08696 69.8603 5.08696C69.2516 5.08696 68.669 5.1913 68.1124 5.4C67.5733 5.60869 67.095 5.87826 66.6777 6.20869C66.3034 6.48939 65.999 6.77708 65.7646 7.07176V6.93913C65.7646 6.48696 65.6168 6.11304 65.3211 5.81739C65.0255 5.50435 64.6516 5.34783 64.1994 5.34783C63.7472 5.34783 63.3733 5.50435 63.0777 5.81739C62.782 6.11304 62.6342 6.48696 62.6342 6.93913ZM69.469 7.95652C68.7037 7.95652 68.0342 8.14783 67.4603 8.53043C66.8863 8.91304 66.4342 9.43478 66.1037 10.0957C65.7907 10.7391 65.6342 11.4783 65.6342 12.313C65.6342 13.1304 65.7907 13.8783 66.1037 14.5565C66.4342 15.2174 66.8863 15.7391 67.4603 16.1217C68.0342 16.5043 68.7037 16.6957 69.469 16.6957C70.2342 16.6957 70.8951 16.5043 71.4516 16.1217C72.0255 15.7391 72.469 15.2174 72.782 14.5565C73.1124 13.8783 73.2777 13.1304 73.2777 12.313C73.2777 11.4783 73.1124 10.7391 72.782 10.0957C72.469 9.43478 72.0255 8.91304 71.4516 8.53043C70.8951 8.14783 70.2342 7.95652 69.469 7.95652Z" fill="#44355B"/>
<path d="M81.9367 18.8609C82.2497 18.5478 82.4063 18.1652 82.4063 17.713V1.5913C82.4063 1.13913 82.2584 0.765216 81.9628 0.469564C81.6845 0.156521 81.3193 0 80.8671 0C80.415 0 80.0323 0.156521 79.7193 0.469564C79.4237 0.765216 79.2758 1.13913 79.2758 1.5913V17.713C79.2758 18.1652 79.4237 18.5478 79.7193 18.8609C80.015 19.1565 80.3802 19.3043 80.8149 19.3043C81.2671 19.3043 81.641 19.1565 81.9367 18.8609Z" fill="#44355B"/>
</svg>
