<svg width="382" height="300" viewBox="0 0 382 300" fill="none" xmlns="http://www.w3.org/2000/svg">
<g clip-path="url(#clip0_47_1969)">
<path d="M345.942 0.196045H0.147644V221.658H345.942V0.196045Z" fill="#E6E6E6"/>
<path d="M336.054 27.9729H10.0356V208.556H336.054V27.9729Z" fill="white"/>
<path d="M345.794 0H0V14.6906H345.794V0Z" fill="#FA4F2E"/>
<path d="M10.9169 10.2334C12.4206 10.2334 13.6397 9.01439 13.6397 7.51063C13.6397 6.00688 12.4206 4.78784 10.9169 4.78784C9.41313 4.78784 8.19409 6.00688 8.19409 7.51063C8.19409 9.01439 9.41313 10.2334 10.9169 10.2334Z" fill="white"/>
<path d="M21.2519 10.2334C22.7557 10.2334 23.9747 9.01439 23.9747 7.51063C23.9747 6.00688 22.7557 4.78784 21.2519 4.78784C19.7481 4.78784 18.5291 6.00688 18.5291 7.51063C18.5291 9.01439 19.7481 10.2334 21.2519 10.2334Z" fill="white"/>
<path d="M31.5869 10.2334C33.0907 10.2334 34.3097 9.01439 34.3097 7.51063C34.3097 6.00688 33.0907 4.78784 31.5869 4.78784C30.0832 4.78784 28.8641 6.00688 28.8641 7.51063C28.8641 9.01439 30.0832 10.2334 31.5869 10.2334Z" fill="white"/>
<path d="M123.43 46.71H39.6588V189.819H123.43V46.71Z" fill="#E6E6E6"/>
<path d="M207.7 46.71H137.891V86.1024H207.7V46.71Z" fill="#FA4F2E"/>
<path d="M207.7 97.0725H137.891V139.457H207.7V97.0725Z" fill="#E6E6E6"/>
<path d="M207.7 150.427H137.891V189.819H207.7V150.427Z" fill="#E6E6E6"/>
<path d="M306.431 46.71H222.659V109.076H306.431V46.71Z" fill="#E6E6E6"/>
<path d="M306.431 127.453H222.659V189.819H306.431V127.453Z" fill="#E6E6E6"/>
<path d="M274.159 113.557V100.13C274.159 95.3584 276.055 90.7821 279.429 87.408C282.803 84.034 287.379 82.1384 292.151 82.1384C296.922 82.1384 301.499 84.034 304.873 87.408C308.247 90.7821 310.142 95.3584 310.142 100.13V113.557C310.142 114.197 309.887 114.812 309.434 115.265C308.981 115.718 308.366 115.973 307.726 115.973H276.576C275.935 115.973 275.321 115.718 274.868 115.265C274.415 114.812 274.16 114.197 274.159 113.557Z" fill="#2F2E41"/>
<path d="M318.754 288.288L312.408 290.044L302.615 266.404L311.98 263.812L318.754 288.288Z" fill="#FFB8B8"/>
<path d="M307.374 289.486L319.612 286.099L321.745 293.804L301.801 299.324C301.521 298.312 301.443 297.255 301.572 296.213C301.7 295.171 302.033 294.164 302.55 293.25C303.068 292.337 303.76 291.534 304.588 290.888C305.415 290.242 306.362 289.766 307.374 289.486Z" fill="#2F2E41"/>
<path d="M252.596 293.169H246.011L242.879 267.772H252.597L252.596 293.169Z" fill="#FFB8B8"/>
<path d="M241.308 291.288H254.006V299.283H233.313C233.313 298.233 233.52 297.193 233.921 296.223C234.323 295.253 234.912 294.372 235.655 293.629C236.397 292.887 237.278 292.298 238.248 291.896C239.218 291.494 240.258 291.288 241.308 291.288Z" fill="#2F2E41"/>
<path d="M244.656 151.236C245.126 151.87 245.729 152.394 246.424 152.77C247.118 153.146 247.886 153.365 248.674 153.412C249.462 153.459 250.251 153.333 250.985 153.042C251.719 152.751 252.381 152.303 252.923 151.729L270.426 159.601L268.833 149.756L252.456 143.789C251.432 142.943 250.132 142.501 248.803 142.549C247.475 142.597 246.21 143.13 245.249 144.048C244.287 144.966 243.696 146.205 243.587 147.529C243.477 148.854 243.858 150.173 244.656 151.236H244.656Z" fill="#FFB8B8"/>
<path d="M281.023 210.441C275.524 210.441 269.831 209.621 265.046 207.185C262.506 205.917 260.255 204.139 258.433 201.961C256.612 199.784 255.26 197.253 254.461 194.529C251.968 186.635 255.111 178.879 258.151 171.379C260.035 166.731 261.815 162.342 262.276 158.015L262.437 156.479C263.157 149.579 263.777 143.62 267.216 141.385C268.998 140.226 271.394 140.16 274.542 141.182L304.104 150.785L303.017 206.903L302.838 206.963C302.683 207.015 292.261 210.441 281.023 210.441Z" fill="#2F2E41"/>
<path d="M274.025 123.711C274.025 123.711 288.525 119.415 299.804 121.026C299.804 121.026 293.359 156.472 295.507 168.288C297.656 180.103 258.181 172.853 266.237 161.574L268.923 148.148C268.923 148.148 263.552 142.777 268.386 136.332L274.025 123.711Z" fill="#FA4F2E"/>
<path d="M266.892 209.377L249.021 206.026L255.26 158.009C255.68 156.668 265.345 126.245 269.735 124.599C272.922 123.477 276.182 122.571 279.492 121.889L280.127 121.761L276.544 127.137L262.277 161.323L266.892 209.377Z" fill="#2F2E41"/>
<path d="M257.581 287.285L234.49 283.437L247.448 230.523L266.73 158.161L266.921 159.446C266.936 159.541 268.737 168.994 295.466 164.8L295.701 164.763L295.766 164.992L328.071 279.138L301.76 283.523L277.763 200.243L257.581 287.285Z" fill="#2F2E41"/>
<path d="M289.585 218.363L289.6 217.956C289.616 217.505 291.204 172.643 290.674 154.601C290.141 136.497 296.003 120.819 296.062 120.663L296.11 120.537L296.239 120.499C303.822 118.333 310.401 124.799 310.466 124.864L310.559 124.957L308.399 142.774L317.645 207.567L289.585 218.363Z" fill="#2F2E41"/>
<path d="M288.454 115.661C295.739 115.661 301.644 109.755 301.644 102.47C301.644 95.185 295.739 89.2793 288.454 89.2793C281.169 89.2793 275.263 95.185 275.263 102.47C275.263 109.755 281.169 115.661 288.454 115.661Z" fill="#FFB8B8"/>
<path d="M269.903 101.204C269.907 97.4308 271.408 93.8133 274.076 91.1451C276.744 88.477 280.362 86.9762 284.135 86.9719H286.82C290.594 86.9762 294.211 88.477 296.879 91.1451C299.547 93.8133 301.048 97.4308 301.052 101.204V101.473H295.377L293.442 96.0527L293.055 101.473H290.122L289.145 98.738L288.95 101.473H269.903V101.204Z" fill="#2F2E41"/>
<path d="M287.155 117.483C286.889 117.122 286.73 116.694 286.696 116.247C286.663 115.799 286.756 115.352 286.966 114.955C289.812 109.543 293.796 99.5414 288.508 93.3736L288.128 92.9304H303.481V115.981L289.534 118.442C289.392 118.467 289.249 118.48 289.106 118.48C288.725 118.48 288.35 118.389 288.011 118.216C287.672 118.043 287.379 117.792 287.155 117.483Z" fill="#2F2E41"/>
<path d="M225.341 22.313C214.597 13.2476 201.451 7.50018 187.5 5.77025C173.55 4.04031 159.398 6.40241 146.765 12.5691C134.133 18.7358 123.566 28.4412 116.349 40.5043C109.132 52.5674 105.577 66.4681 106.116 80.5149C106.655 94.5617 111.266 108.149 119.386 119.623C127.507 131.098 138.787 139.964 151.855 145.144C164.923 150.324 179.215 151.594 192.991 148.8C206.768 146.006 219.435 139.267 229.452 129.405L318.399 204.458C319.753 205.602 321.505 206.162 323.271 206.014C325.037 205.866 326.672 205.023 327.817 203.669C328.961 202.316 329.52 200.564 329.373 198.798C329.225 197.032 328.381 195.397 327.028 194.252L327.018 194.244L238.071 119.191C248.404 104.361 252.826 86.2068 250.471 68.2861C248.116 50.3654 239.154 33.9701 225.341 22.313ZM219.607 111.964C212.677 120.176 203.468 126.149 193.144 129.127C182.82 132.106 171.845 131.956 161.606 128.696C151.367 125.437 142.325 119.215 135.622 110.817C128.92 102.418 124.858 92.2209 123.951 81.5142C123.044 70.8075 125.332 60.0723 130.526 50.666C135.721 41.2598 143.587 33.605 153.132 28.6697C162.676 23.7344 173.47 21.7402 184.148 22.9394C194.826 24.1385 204.909 28.4771 213.121 35.4065H213.121C218.574 40.0074 223.067 45.6373 226.344 51.9747C229.62 58.312 231.617 65.2328 232.219 72.3418C232.822 79.4508 232.018 86.6088 229.854 93.4071C227.69 100.205 224.208 106.511 219.607 111.964Z" fill="#3F3D56"/>
<path opacity="0.3" d="M143.05 118.45C132.627 109.655 125.894 97.2616 124.186 83.7316C122.478 70.2016 125.921 56.5242 133.831 45.415C132.792 46.4612 131.788 47.5567 130.818 48.7018C126.217 54.1545 122.735 60.46 120.571 67.2583C118.407 74.0567 117.603 81.2147 118.205 88.3237C118.808 95.4327 120.804 102.353 124.081 108.691C127.358 115.028 131.851 120.658 137.304 125.259C142.757 129.86 149.062 133.342 155.86 135.506C162.659 137.67 169.817 138.474 176.926 137.872C184.035 137.269 190.955 135.273 197.293 131.996C203.63 128.719 209.26 124.226 213.861 118.773C214.828 117.627 215.74 116.452 216.594 115.251C206.974 124.917 194.071 130.611 180.446 131.204C166.822 131.797 153.473 127.244 143.05 118.45Z" fill="black"/>
<path d="M292.689 174.296C293.456 174.484 294.254 174.501 295.029 174.346C295.803 174.192 296.534 173.869 297.17 173.401C297.806 172.934 298.332 172.332 298.711 171.64C299.089 170.947 299.311 170.179 299.361 169.391L317.854 164.258L310.337 157.704L293.928 163.584C292.599 163.587 291.317 164.079 290.326 164.965C289.335 165.85 288.703 167.069 288.55 168.389C288.397 169.71 288.734 171.04 289.497 172.129C290.26 173.218 291.395 173.989 292.689 174.296Z" fill="#FFB8B8"/>
<path d="M300.375 171.579L299.25 160.888L314.697 152.366L304.626 140.174L306.269 126.479L310.361 124.726L310.489 124.889C312.418 127.371 329.342 149.208 329.342 151.907C329.342 154.68 326.105 162.822 321.675 165.037C317.402 167.173 301.357 171.326 300.677 171.502L300.375 171.579Z" fill="#2F2E41"/>
<path d="M380.527 300H175.906C175.763 300 175.627 299.943 175.526 299.843C175.425 299.742 175.369 299.605 175.369 299.463C175.369 299.32 175.425 299.184 175.526 299.083C175.627 298.982 175.763 298.926 175.906 298.926H380.527C380.669 298.926 380.806 298.982 380.906 299.083C381.007 299.184 381.064 299.32 381.064 299.463C381.064 299.605 381.007 299.742 380.906 299.843C380.806 299.943 380.669 300 380.527 300Z" fill="#CCCCCC"/>
</g>
<defs>
<clipPath id="clip0_47_1969">
<rect width="381.064" height="300" fill="white"/>
</clipPath>
</defs>
</svg>
